<?xml version="1.0" standalone="no"?>
<!DOCTYPE svg PUBLIC "-//W3C//DTD SVG 1.1//EN"
  "http://www.w3.org/Graphics/SVG/1.1/DTD/svg11.dtd">
<svg width="21.000000774860382mm" height="30.24999999999999mm" viewBox="-1.800000011920929 -52.79999923706053 21.000000774860382 30.24999999999999" xmlns="http://www.w3.org/2000/svg" version="1.1">
	<title>svgOutput</title>
	<desc>made with tinkercad</desc>
<path d="M 15.199999809265137 -35.55300140380859 L 14.29800033569336 -35.55300140380859 L 12.817999839782715 -35.55300140380859 L 12.45199966430664 -35.55300140380859 L 12.45199966430664 -27.0979995727539 L 12.45199966430664 -24.79999923706054 L 12.45199966430664 -24.798000335693352 L 15.206999778747559 -24.798000335693352 L 15.206999778747559 -24.79999923706054 L 16.384000778198242 -24.79999923706054 L 18.200000762939453 -24.79999923706054 L 18.15399932861328 -24.67700004577636 L 18.017000198364258 -24.555999755859368 L 17.791000366210938 -24.437000274658196 L 17.476999282836914 -24.322000503540032 L 17.077999114990234 -24.211000442504876 L 16.599000930786133 -24.106000900268548 L 16.384000778198242 -24.067647933959954 L 16.04400062561035 -24.006999969482415 L 15.418000221252441 -23.916000366210934 L 15.206999778747559 -23.89096069335937 L 14.72700023651123 -23.83399963378906 L 13.977999687194824 -23.760999679565426 L 13.178000450134277 -23.69799995422363 L 12.45199966430664 -23.652355194091793 L 12.335000038146973 -23.64500045776367 L 11.458000183105469 -23.60400009155273 L 10.553000450134277 -23.573999404907223 L 10.45199966430664 -23.572029113769528 L 9.630999565124512 -23.55599975585937 L 8.699999809265137 -23.549999237060543 L 8.192000389099121 -23.553274154663082 L 7.769000053405762 -23.55599975585937 L 6.8470001220703125 -23.573999404907223 L 6.452000141143799 -23.58709335327148 L 5.941999912261963 -23.60400009155273 L 5.065000057220459 -23.64500045776367 L 4.953000068664551 -23.652042388916012 L 4.2220001220703125 -23.69799995422363 L 3.421999931335449 -23.760999679565426 L 2.6730000972747803 -23.83399963378906 L 2.197999954223633 -23.890367507934567 L 1.9819999933242798 -23.916000366210934 L 1.3559999465942383 -24.006999969482415 L 0.8009999990463257 -24.106000900268548 L 0.32199999690055847 -24.211000442504876 L 0 -24.300579071044915 L -0.07699999958276749 -24.322000503540032 L -0.39100000262260437 -24.437000274658196 L -0.6169999837875366 -24.555999755859368 L -0.7540000081062317 -24.67700004577636 L -0.800000011920929 -24.79999923706054 L 0 -24.79999923706054 L 2.197999954223633 -24.79999923706054 L 2.197999954223633 -24.798000335693352 L 4.953000068664551 -24.798000335693352 L 4.953000068664551 -24.79999923706054 L 4.953000068664551 -35.55300140380859 L 4.297999858856201 -35.55300140380859 L 2.697999954223633 -35.55300140380859 L 2.200000047683716 -35.55300140380859 L 2.200000047683716 -48.54999923706053 L 0 -48.54999923706053 L -0.800000011920929 -48.54999923706053 L -0.7540000081062317 -48.86899948120116 L -0.6169999837875366 -49.18399810791014 L -0.39100000262260437 -49.493000030517564 L -0.07699999958276749 -49.793998718261705 L 9.701276715008526e-15 -49.84957885742186 L 0.32199999690055847 -50.08200073242186 L 0.8009999990463257 -50.35599899291991 L 1.3559999465942383 -50.611999511718736 L 1.9819999933242798 -50.84799957275389 L 2.6730000972747803 -51.06200027465819 L 2.697999954223633 -51.06834030151366 L 3.1029999256134033 -51.17107772827147 L 3.421999931335449 -51.25199890136717 L 4.2220001220703125 -51.41600036621092 L 5.065000057220459 -51.55300140380858 L 5.941999912261963 -51.659999847412095 L 6.8470001220703125 -51.73799896240233 L 7.769000053405762 -51.7840003967285 L 8.192000389099121 -51.79127120971678 L 8.699999809265137 -51.79999923706053 L 9.630999565124512 -51.7840003967285 L 10.553000450134277 -51.73799896240233 L 11.458000183105469 -51.659999847412095 L 12.335000038146973 -51.55300140380858 L 13.178000450134277 -51.41600036621092 L 13.977999687194824 -51.25199890136717 L 14.29800033569336 -51.17082595825194 L 14.70300006866455 -51.068088531494126 L 14.72700023651123 -51.06200027465819 L 15.418000221252441 -50.84799957275389 L 16.04400062561035 -50.611999511718736 L 16.384000778198242 -50.45516967773436 L 16.599000930786133 -50.35599899291991 L 17.077999114990234 -50.08200073242186 L 17.476999282836914 -49.793998718261705 L 17.791000366210938 -49.493000030517564 L 18.017000198364258 -49.18399810791014 L 18.15399932861328 -48.86899948120116 L 18.200000762939453 -48.54999923706053 L 16.384000778198242 -48.54999923706053 L 15.199999809265137 -48.54999923706053 L 15.199999809265137 -45.748001098632805 L 15.199999809265137 -36.04800033569335 L 15.199999809265137 -35.55300140380859 M 12.92300033569336 -45.75500106811523 L 12.970000267028809 -45.748001098632805 L 13.017000198364258 -45.75500106811523 L 13.0600004196167 -45.77700042724609 L 13.093000411987305 -45.81000137329101 L 13.100162506103516 -45.82400131225585 L 13.114999771118164 -45.85300064086913 L 13.123000144958496 -45.9000015258789 L 13.114999771118164 -45.9469985961914 L 13.093000411987305 -45.99000167846679 L 13.0600004196167 -46.022998809814446 L 13.017000198364258 -46.044998168945305 L 12.970000267028809 -46.05300140380859 L 12.92300033569336 -46.044998168945305 L 12.880000114440918 -46.022998809814446 L 12.847000122070312 -45.99000167846679 L 12.824999809265137 -45.9469985961914 L 12.817999839782715 -45.9000015258789 L 12.824999809265137 -45.85300064086913 L 12.839837074279785 -45.82400131225585 L 12.847000122070312 -45.81000137329101 L 12.880000114440918 -45.77700042724609 L 12.92300033569336 -45.75500106811523 M 12.92300033569336 -46.555000305175774 L 12.970000267028809 -46.54800033569335 L 13.017000198364258 -46.555000305175774 L 13.0600004196167 -46.57699966430663 L 13.074999809265137 -46.59199905395507 L 13.093000411987305 -46.610000610351555 L 13.114999771118164 -46.65299987792968 L 13.123000144958496 -46.700000762939446 L 13.114999771118164 -46.74700164794921 L 13.093000411987305 -46.79000091552734 L 13.0600004196167 -46.82300186157226 L 13.055999755859375 -46.82504653930663 L 13.017000198364258 -46.84500122070312 L 12.970000267028809 -46.85300064086913 L 12.92300033569336 -46.84500122070312 L 12.880000114440918 -46.82300186157226 L 12.847000122070312 -46.79000091552734 L 12.824999809265137 -46.74700164794921 L 12.817999839782715 -46.700000762939446 L 12.824999809265137 -46.65299987792968 L 12.847000122070312 -46.610000610351555 L 12.864999771118164 -46.59199905395507 L 12.880000114440918 -46.57699966430663 L 12.92300033569336 -46.555000305175774 M 14.692999839782715 -36.31299972534179 L 14.67280387878418 -36.35200119018554 L 14.663999557495117 -36.368999481201165 L 14.619000434875488 -36.41400146484374 L 14.562999725341797 -36.443000793457024 L 14.5 -36.45299911499023 L 14.437000274658203 -36.443000793457024 L 14.380999565124512 -36.41400146484374 L 14.336000442504883 -36.368999481201165 L 14.32719612121582 -36.35200119018554 L 14.307000160217285 -36.31299972534179 L 14.29800033569336 -36.24999999999999 L 14.307000160217285 -36.187000274658196 L 14.336000442504883 -36.13100051879882 L 14.380999565124512 -36.08599853515624 L 14.437000274658203 -36.05699920654296 L 14.5 -36.04800033569335 L 14.562999725341797 -36.05699920654296 L 14.619000434875488 -36.08599853515624 L 14.663999557495117 -36.13100051879882 L 14.692999839782715 -36.187000274658196 L 14.70300006866455 -36.24999999999999 L 14.692999839782715 -36.31299972534179 M 4.4029998779296875 -45.75500106811523 L 4.449999809265137 -45.748001098632805 L 4.497000217437744 -45.75500106811523 L 4.539999961853027 -45.77700042724609 L 4.572999954223633 -45.81000137329101 L 4.58016300201416 -45.82400131225585 L 4.59499979019165 -45.85300064086913 L 4.603000164031982 -45.9000015258789 L 4.59499979019165 -45.9469985961914 L 4.572999954223633 -45.99000167846679 L 4.539999961853027 -46.022998809814446 L 4.497000217437744 -46.044998168945305 L 4.449999809265137 -46.05300140380859 L 4.4029998779296875 -46.044998168945305 L 4.360000133514404 -46.022998809814446 L 4.327000141143799 -45.99000167846679 L 4.304999828338623 -45.9469985961914 L 4.297999858856201 -45.9000015258789 L 4.304999828338623 -45.85300064086913 L 4.3198370933532715 -45.82400131225585 L 4.327000141143799 -45.81000137329101 L 4.360000133514404 -45.77700042724609 L 4.4029998779296875 -45.75500106811523 M 4.4029998779296875 -46.555000305175774 L 4.449999809265137 -46.54800033569335 L 4.497000217437744 -46.555000305175774 L 4.539999961853027 -46.57699966430663 L 4.554999828338623 -46.59199905395507 L 4.572999954223633 -46.610000610351555 L 4.59499979019165 -46.65299987792968 L 4.603000164031982 -46.700000762939446 L 4.59499979019165 -46.74700164794921 L 4.572999954223633 -46.79000091552734 L 4.539999961853027 -46.82300186157226 L 4.497000217437744 -46.84500122070312 L 4.449999809265137 -46.85300064086913 L 4.4029998779296875 -46.84500122070312 L 4.360000133514404 -46.82300186157226 L 4.3520002365112305 -46.81499862670898 L 4.327000141143799 -46.79000091552734 L 4.304999828338623 -46.74700164794921 L 4.297999858856201 -46.700000762939446 L 4.304999828338623 -46.65299987792968 L 4.327000141143799 -46.610000610351555 L 4.34499979019165 -46.59199905395507 L 4.360000133514404 -46.57699966430663 L 4.4029998779296875 -46.555000305175774 M 8.557000160217285 -46.51300048828124 L 8.54800033569336 -46.450000762939446 L 8.557000160217285 -46.38700103759765 L 8.586000442504883 -46.331001281738274 L 8.630999565124512 -46.285999298095696 L 8.687000274658203 -46.256999969482415 L 8.704000473022461 -46.25457000732421 L 8.75 -46.248001098632805 L 8.812999725341797 -46.256999969482415 L 8.869000434875488 -46.285999298095696 L 8.913999557495117 -46.331001281738274 L 8.942999839782715 -46.38700103759765 L 8.95300006866455 -46.450000762939446 L 8.942999839782715 -46.51300048828124 L 8.913999557495117 -46.56900024414062 L 8.890999794006348 -46.59199905395507 L 8.869000434875488 -46.61399841308593 L 8.812999725341797 -46.64300155639648 L 8.75 -46.65299987792968 L 8.687000274658203 -46.64300155639648 L 8.630999565124512 -46.61399841308593 L 8.609000205993652 -46.59199905395507 L 8.586000442504883 -46.56900024414062 L 8.557000160217285 -46.51300048828124 M 11.77299976348877 -27.10700035095214 L 11.829000473022461 -27.135999679565423 L 11.87399959564209 -27.180999755859368 L 11.902999877929688 -27.236999511718743 L 11.913000106811523 -27.29999923706054 L 11.902999877929688 -27.36300086975097 L 11.87399959564209 -27.419000625610344 L 11.829000473022461 -27.46400070190429 L 11.776000022888184 -27.49144554138183 L 11.77299976348877 -27.49300003051757 L 11.710000038146973 -27.503000259399407 L 11.647000312805176 -27.49300003051757 L 11.590999603271484 -27.46400070190429 L 11.545999526977539 -27.419000625610344 L 11.517000198364258 -27.36300086975097 L 11.508000373840332 -27.29999923706054 L 11.517000198364258 -27.236999511718743 L 11.545999526977539 -27.180999755859368 L 11.590999603271484 -27.135999679565423 L 11.647000312805176 -27.10700035095214 L 11.710000038146973 -27.0979995727539 L 11.77299976348877 -27.10700035095214 M 5.7729997634887695 -27.10700035095214 L 5.828999996185303 -27.135999679565423 L 5.874000072479248 -27.180999755859368 L 5.9029998779296875 -27.236999511718743 L 5.913000106811523 -27.29999923706054 L 5.9029998779296875 -27.36300086975097 L 5.874000072479248 -27.419000625610344 L 5.828999996185303 -27.46400070190429 L 5.7729997634887695 -27.49300003051757 L 5.710000038146973 -27.503000259399407 L 5.646999835968018 -27.49300003051757 L 5.631999969482422 -27.485231399536126 L 5.591000080108643 -27.46400070190429 L 5.546000003814697 -27.419000625610344 L 5.517000198364258 -27.36300086975097 L 5.507999897003174 -27.29999923706054 L 5.517000198364258 -27.236999511718743 L 5.546000003814697 -27.180999755859368 L 5.591000080108643 -27.135999679565423 L 5.646999835968018 -27.10700035095214 L 5.710000038146973 -27.0979995727539 L 5.7729997634887695 -27.10700035095214 M 8.687000274658203 -38.35699844360351 L 8.75 -38.3479995727539 L 8.812999725341797 -38.35699844360351 L 8.869000434875488 -38.386001586914055 L 8.883000373840332 -38.4000015258789 L 8.913999557495117 -38.43099975585937 L 8.942999839782715 -38.48699951171874 L 8.95300006866455 -38.54999923706054 L 8.942999839782715 -38.61299896240234 L 8.913999557495117 -38.66899871826171 L 8.869000434875488 -38.71400070190429 L 8.812999725341797 -38.74300003051757 L 8.75 -38.752998352050774 L 8.704000473022461 -38.74569702148437 L 8.687000274658203 -38.74300003051757 L 8.630999565124512 -38.71400070190429 L 8.586000442504883 -38.66899871826171 L 8.557000160217285 -38.61299896240234 L 8.54800033569336 -38.54999923706054 L 8.557000160217285 -38.48699951171874 L 8.586000442504883 -38.43099975585937 L 8.616999626159668 -38.4000015258789 L 8.630999565124512 -38.386001586914055 L 8.687000274658203 -38.35699844360351 M 9.663000106811523 -36.74000167846679 L 9.682999610900879 -36.86399841308593 L 9.713000297546387 -37.04999923706054 L 9.663000106811523 -37.360000610351555 L 9.520999908447266 -37.63899993896484 L 9.298999786376953 -37.86100006103515 L 9.020000457763672 -38.002998352050774 L 8.710000038146973 -38.05300140380859 L 8.54800033569336 -38.026870727539055 L 8.399999618530273 -38.002998352050774 L 8.121000289916992 -37.86100006103515 L 7.89900016784668 -37.63899993896484 L 7.756999969482422 -37.360000610351555 L 7.708000183105469 -37.04999923706054 L 7.737400054931641 -36.86399841308593 L 7.756999969482422 -36.74000167846679 L 7.89900016784668 -36.46099853515624 L 8.121000289916992 -36.23899841308593 L 8.399999618530273 -36.097000122070305 L 8.54800033569336 -36.07360458374023 L 8.710000038146973 -36.04800033569335 L 9.020000457763672 -36.097000122070305 L 9.298999786376953 -36.23899841308593 L 9.520999908447266 -36.46099853515624 L 9.663000106811523 -36.74000167846679 M 9.126999855041504 -34.1969985961914 L 9.1899995803833 -34.18799972534179 L 9.253000259399414 -34.1969985961914 L 9.309000015258789 -34.226001739501946 L 9.354000091552734 -34.27099990844726 L 9.371088981628418 -34.30400085449218 L 9.383000373840332 -34.32699966430663 L 9.392999649047852 -34.38999938964843 L 9.383000373840332 -34.45299911499023 L 9.354000091552734 -34.5089988708496 L 9.309000015258789 -34.55400085449218 L 9.253000259399414 -34.58300018310546 L 9.1899995803833 -34.592998504638665 L 9.126999855041504 -34.58300018310546 L 9.071000099182129 -34.55400085449218 L 9.026000022888184 -34.5089988708496 L 8.996999740600586 -34.45299911499023 L 8.98799991607666 -34.38999938964843 L 8.996999740600586 -34.32699966430663 L 9.0089111328125 -34.30400085449218 L 9.026000022888184 -34.27099990844726 L 9.071000099182129 -34.226001739501946 L 9.126999855041504 -34.1969985961914 M 9.472000122070312 -31.369256973266594 L 9.479999542236328 -31.36800003051757 L 9.550000190734863 -31.378999710083 L 9.61400032043457 -31.410999298095696 L 9.663999557495117 -31.461000442504876 L 9.696000099182129 -31.524999618530266 L 9.708000183105469 -31.594999313354485 L 9.696000099182129 -31.665000915527337 L 9.663999557495117 -31.729000091552727 L 9.64900016784668 -31.743999481201165 L 9.61400032043457 -31.778999328613274 L 9.550000190734863 -31.811000823974602 L 9.479999542236328 -31.822999954223626 L 9.40999984741211 -31.811000823974602 L 9.345999717712402 -31.778999328613274 L 9.310999870300293 -31.743999481201165 L 9.295999526977539 -31.729000091552727 L 9.263999938964844 -31.665000915527337 L 9.253000259399414 -31.594999313354485 L 9.263999938964844 -31.524999618530266 L 9.295999526977539 -31.461000442504876 L 9.345999717712402 -31.410999298095696 L 9.40999984741211 -31.378999710083 L 9.472000122070312 -31.369256973266594 M 9.416999816894531 -28.17900085449218 L 9.48799991607666 -28.167999267578118 L 9.557999610900879 -28.17900085449218 L 9.621000289916992 -28.211000442504876 L 9.67199993133545 -28.260999679565423 L 9.704000473022461 -28.325000762939446 L 9.71500015258789 -28.395000457763665 L 9.711700439453125 -28.41600036621093 L 9.704000473022461 -28.465000152587884 L 9.67199993133545 -28.528999328613274 L 9.621000289916992 -28.579000473022454 L 9.557999610900879 -28.61100006103515 L 9.48799991607666 -28.622999191284173 L 9.416999816894531 -28.61100006103515 L 9.354000091552734 -28.579000473022454 L 9.303000450134277 -28.528999328613274 L 9.270999908447266 -28.465000152587884 L 9.263299942016602 -28.41600036621093 L 9.260000228881836 -28.395000457763665 L 9.270999908447266 -28.325000762939446 L 9.303000450134277 -28.260999679565423 L 9.354000091552734 -28.211000442504876 L 9.416999816894531 -28.17900085449218 M 8.126999855041504 -34.1969985961914 L 8.1899995803833 -34.18799972534179 L 8.253000259399414 -34.1969985961914 L 8.309000015258789 -34.226001739501946 L 8.354000091552734 -34.27099990844726 L 8.371088981628418 -34.30400085449218 L 8.383000373840332 -34.32699966430663 L 8.392999649047852 -34.38999938964843 L 8.383000373840332 -34.45299911499023 L 8.354000091552734 -34.5089988708496 L 8.309000015258789 -34.55400085449218 L 8.253000259399414 -34.58300018310546 L 8.1899995803833 -34.592998504638665 L 8.126999855041504 -34.58300018310546 L 8.071000099182129 -34.55400085449218 L 8.026000022888184 -34.5089988708496 L 7.997000217437744 -34.45299911499023 L 7.98799991607666 -34.38999938964843 L 7.997000217437744 -34.32699966430663 L 8.0089111328125 -34.30400085449218 L 8.026000022888184 -34.27099990844726 L 8.071000099182129 -34.226001739501946 L 8.126999855041504 -34.1969985961914 M 8.059000015258789 -31.729000091552727 L 8.043999671936035 -31.743999481201165 L 8.008999824523926 -31.778999328613274 L 7.98799991607666 -31.789499282836907 L 7.945000171661377 -31.811000823974602 L 7.875 -31.822999954223626 L 7.804999828338623 -31.811000823974602 L 7.741000175476074 -31.778999328613274 L 7.708000183105469 -31.746000289916985 L 7.705999851226807 -31.743999481201165 L 7.690999984741211 -31.729000091552727 L 7.679999828338623 -31.707000732421868 L 7.658999919891357 -31.665000915527337 L 7.6479997634887695 -31.594999313354485 L 7.658999919891357 -31.524999618530266 L 7.679999828338623 -31.482999801635735 L 7.690999984741211 -31.461000442504876 L 7.708000183105469 -31.444000244140618 L 7.741000175476074 -31.410999298095696 L 7.804999828338623 -31.378999710083 L 7.875 -31.36800003051757 L 7.945000171661377 -31.378999710083 L 7.98799991607666 -31.400499343872063 L 8.008999824523926 -31.410999298095696 L 8.059000015258789 -31.461000442504876 L 8.090999603271484 -31.524999618530266 L 8.102999687194824 -31.594999313354485 L 8.090999603271484 -31.665000915527337 L 8.059000015258789 -31.729000091552727 M 8.098999977111816 -28.325000762939446 L 8.109999656677246 -28.395000457763665 L 8.10669994354248 -28.41600036621093 L 8.098999977111816 -28.465000152587884 L 8.067000389099121 -28.528999328613274 L 8.015999794006348 -28.579000473022454 L 7.98799991607666 -28.593221664428704 L 7.953000068664551 -28.61100006103515 L 7.882999897003174 -28.622999191284173 L 7.811999797821045 -28.61100006103515 L 7.749000072479248 -28.579000473022454 L 7.708000183105469 -28.53880310058593 L 7.697999954223633 -28.528999328613274 L 7.665999889373779 -28.465000152587884 L 7.658299922943115 -28.41600036621093 L 7.65500020980835 -28.395000457763665 L 7.665999889373779 -28.325000762939446 L 7.697999954223633 -28.260999679565423 L 7.708000183105469 -28.251195907592766 L 7.749000072479248 -28.211000442504876 L 7.811999797821045 -28.17900085449218 L 7.882999897003174 -28.167999267578118 L 7.953000068664551 -28.17900085449218 L 7.98799991607666 -28.196777343749993 L 8.015999794006348 -28.211000442504876 L 8.067000389099121 -28.260999679565423 L 8.098999977111816 -28.325000762939446 M 7.0929999351501465 -26.287000656127923 L 7.103000164031982 -26.35000038146972 L 7.100142955780029 -26.36800003051757 L 7.0929999351501465 -26.413000106811516 L 7.064000129699707 -26.46899986267089 L 7.019000053405762 -26.513999938964837 L 6.9629998207092285 -26.542999267578118 L 6.900000095367432 -26.552999496459954 L 6.836999893188477 -26.542999267578118 L 6.781000137329102 -26.513999938964837 L 6.736000061035156 -26.46899986267089 L 6.706999778747559 -26.413000106811516 L 6.700571537017822 -26.36800003051757 L 6.697999954223633 -26.35000038146972 L 6.706999778747559 -26.287000656127923 L 6.736000061035156 -26.231000900268548 L 6.781000137329102 -26.186000823974602 L 6.836999893188477 -26.156999588012688 L 6.900000095367432 -26.14800071716308 L 6.9629998207092285 -26.156999588012688 L 7.019000053405762 -26.186000823974602 L 7.064000129699707 -26.231000900268548 L 7.0929999351501465 -26.287000656127923 M 6.697999954223633 -26.5998249053955 L 6.7179999351501465 -26.603000640869134 L 6.758551597595215 -26.6240005493164 L 6.77400016784668 -26.631999969482415 L 6.818999767303467 -26.676000595092766 L 6.8480000495910645 -26.732999801635735 L 6.85699987411499 -26.795000076293938 L 6.8480000495910645 -26.857999801635735 L 6.818999767303467 -26.91399955749511 L 6.77400016784668 -26.958999633789055 L 6.7179999351501465 -26.98800086975097 L 6.697999954223633 -26.99117469787597 L 6.656000137329102 -26.99784088134765 L 6.65500020980835 -26.997999191284173 L 6.5920000076293945 -26.98800086975097 L 6.535999774932861 -26.958999633789055 L 6.491000175476074 -26.91399955749511 L 6.461999893188477 -26.857999801635735 L 6.452000141143799 -26.795000076293938 L 6.461999893188477 -26.732999801635735 L 6.491000175476074 -26.676000595092766 L 6.535999774932861 -26.631999969482415 L 6.551448345184326 -26.6240005493164 L 6.5920000076293945 -26.603000640869134 L 6.65500020980835 -26.593000411987298 L 6.697999954223633 -26.5998249053955 M 10.692999839782715 -26.287000656127923 L 10.70300006866455 -26.35000038146972 L 10.700142860412598 -26.36800003051757 L 10.692999839782715 -26.413000106811516 L 10.663999557495117 -26.46899986267089 L 10.619000434875488 -26.513999938964837 L 10.562999725341797 -26.542999267578118 L 10.5 -26.552999496459954 L 10.437000274658203 -26.542999267578118 L 10.380999565124512 -26.513999938964837 L 10.336000442504883 -26.46899986267089 L 10.307000160217285 -26.413000106811516 L 10.30057144165039 -26.36800003051757 L 10.29800033569336 -26.35000038146972 L 10.307000160217285 -26.287000656127923 L 10.336000442504883 -26.231000900268548 L 10.380999565124512 -26.186000823974602 L 10.437000274658203 -26.156999588012688 L 10.5 -26.14800071716308 L 10.562999725341797 -26.156999588012688 L 10.619000434875488 -26.186000823974602 L 10.663999557495117 -26.231000900268548 L 10.692999839782715 -26.287000656127923 M 10.592000007629395 -26.603000640869134 L 10.654999732971191 -26.593000411987298 L 10.70300006866455 -26.60061836242675 L 10.718000411987305 -26.603000640869134 L 10.758551597595215 -26.6240005493164 L 10.77400016784668 -26.631999969482415 L 10.819000244140625 -26.676000595092766 L 10.847999572753906 -26.732999801635735 L 10.857000350952148 -26.795000076293938 L 10.847999572753906 -26.857999801635735 L 10.819000244140625 -26.91399955749511 L 10.77400016784668 -26.958999633789055 L 10.751999855041504 -26.970392227172844 L 10.718000411987305 -26.98800086975097 L 10.70300006866455 -26.99038124084472 L 10.654999732971191 -26.997999191284173 L 10.592000007629395 -26.98800086975097 L 10.53600025177002 -26.958999633789055 L 10.491000175476074 -26.91399955749511 L 10.461999893188477 -26.857999801635735 L 10.45199966430664 -26.795000076293938 L 10.461999893188477 -26.732999801635735 L 10.491000175476074 -26.676000595092766 L 10.53600025177002 -26.631999969482415 L 10.551447868347168 -26.6240005493164 L 10.592000007629395 -26.603000640869134 M 3.0929999351501465 -36.187000274658196 L 3.1029999256134033 -36.24999999999999 L 3.0929999351501465 -36.31299972534179 L 3.072803497314453 -36.35200119018554 L 3.063999891281128 -36.368999481201165 L 3.0190000534057617 -36.41400146484374 L 2.9630000591278076 -36.443000793457024 L 2.9000000953674316 -36.45299911499023 L 2.8369998931884766 -36.443000793457024 L 2.7809998989105225 -36.41400146484374 L 2.7360000610351562 -36.368999481201165 L 2.727196455001831 -36.35200119018554 L 2.7070000171661377 -36.31299972534179 L 2.697999954223633 -36.24999999999999 L 2.7070000171661377 -36.187000274658196 L 2.7360000610351562 -36.13100051879882 L 2.7809998989105225 -36.08599853515624 L 2.8369998931884766 -36.05699920654296 L 2.9000000953674316 -36.04800033569335 L 2.9630000591278076 -36.05699920654296 L 3.0190000534057617 -36.08599853515624 L 3.063999891281128 -36.13100051879882 L 3.0929999351501465 -36.187000274658196 M 10.847999572753906 -24.232999801635735 L 10.819000244140625 -24.176000595092766 L 10.77400016784668 -24.131999969482415 L 10.718000411987305 -24.103000640869134 L 10.654999732971191 -24.093000411987298 L 10.592000007629395 -24.103000640869134 L 10.53600025177002 -24.131999969482415 L 10.491000175476074 -24.176000595092766 L 10.461999893188477 -24.232999801635735 L 10.45199966430664 -24.295000076293938 L 10.455967903137207 -24.31999969482421 L 10.461999893188477 -24.357999801635735 L 10.491000175476074 -24.41399955749511 L 10.53600025177002 -24.458999633789055 L 10.592000007629395 -24.48800086975097 L 10.654999732971191 -24.497999191284173 L 10.718000411987305 -24.48800086975097 L 10.77400016784668 -24.458999633789055 L 10.819000244140625 -24.41399955749511 L 10.847999572753906 -24.357999801635735 L 10.853428840637207 -24.31999969482421 L 10.857000350952148 -24.295000076293938 L 10.847999572753906 -24.232999801635735 M 6.8480000495910645 -24.232999801635735 L 6.818999767303467 -24.176000595092766 L 6.77400016784668 -24.131999969482415 L 6.7179999351501465 -24.103000640869134 L 6.65500020980835 -24.093000411987298 L 6.5920000076293945 -24.103000640869134 L 6.535999774932861 -24.131999969482415 L 6.491000175476074 -24.176000595092766 L 6.461999893188477 -24.232999801635735 L 6.452000141143799 -24.295000076293938 L 6.455968379974365 -24.31999969482421 L 6.461999893188477 -24.357999801635735 L 6.491000175476074 -24.41399955749511 L 6.535999774932861 -24.458999633789055 L 6.5920000076293945 -24.48800086975097 L 6.65500020980835 -24.497999191284173 L 6.7179999351501465 -24.48800086975097 L 6.77400016784668 -24.458999633789055 L 6.818999767303467 -24.41399955749511 L 6.8480000495910645 -24.357999801635735 L 6.853428363800049 -24.31999969482421 L 6.85699987411499 -24.295000076293938 L 6.8480000495910645 -24.232999801635735 M 14.663999557495117 -49.131000518798814 L 14.619000434875488 -49.085998535156236 L 14.562999725341797 -49.056999206542955 L 14.5 -49.048000335693345 L 14.437000274658203 -49.056999206542955 L 14.380999565124512 -49.085998535156236 L 14.336000442504883 -49.131000518798814 L 14.325124740600586 -49.15200042724608 L 14.307000160217285 -49.18700027465819 L 14.29800033569336 -49.249999999999986 L 14.307000160217285 -49.31299972534178 L 14.336000442504883 -49.36899948120116 L 14.380999565124512 -49.414001464843736 L 14.437000274658203 -49.44300079345702 L 14.5 -49.45299911499022 L 14.562999725341797 -49.44300079345702 L 14.619000434875488 -49.414001464843736 L 14.663999557495117 -49.36899948120116 L 14.692999839782715 -49.31299972534178 L 14.70300006866455 -49.249999999999986 L 14.692999839782715 -49.18700027465819 L 14.674875259399414 -49.15200042724608 L 14.663999557495117 -49.131000518798814 M 3.063999891281128 -49.131000518798814 L 3.0190000534057617 -49.085998535156236 L 2.9630000591278076 -49.056999206542955 L 2.9000000953674316 -49.048000335693345 L 2.8369998931884766 -49.056999206542955 L 2.7809998989105225 -49.085998535156236 L 2.7360000610351562 -49.131000518798814 L 2.7251250743865967 -49.15200042724608 L 2.7070000171661377 -49.18700027465819 L 2.697999954223633 -49.249999999999986 L 2.7070000171661377 -49.31299972534178 L 2.7360000610351562 -49.36899948120116 L 2.7809998989105225 -49.414001464843736 L 2.8369998931884766 -49.44300079345702 L 2.9000000953674316 -49.45299911499022 L 2.9630000591278076 -49.44300079345702 L 3.0190000534057617 -49.414001464843736 L 3.063999891281128 -49.36899948120116 L 3.0929999351501465 -49.31299972534178 L 3.1029999256134033 -49.249999999999986 L 3.0929999351501465 -49.18700027465819 L 3.0748751163482666 -49.15200042724608 L 3.063999891281128 -49.131000518798814 M 10.857000350952148 -24.31999969482421 L 10.857000350952148 -24.497999191284173 L 10.654999732971191 -24.497999191284173 L 10.45199966430664 -24.497999191284173 L 10.45199966430664 -24.295000076293938 L 10.45199966430664 -24.093000411987298 L 10.654999732971191 -24.093000411987298 L 10.857000350952148 -24.093000411987298 L 10.857000350952148 -24.295000076293938 M 6.85699987411499 -24.31999969482421 L 6.85699987411499 -24.497999191284173 L 6.65500020980835 -24.497999191284173 L 6.452000141143799 -24.497999191284173 L 6.452000141143799 -24.295000076293938 L 6.452000141143799 -24.093000411987298 L 6.65500020980835 -24.093000411987298 L 6.85699987411499 -24.093000411987298 L 6.85699987411499 -24.295000076293938 M 14.70300006866455 -49.15200042724608 L 14.70300006866455 -49.249999999999986 L 14.70300006866455 -49.45299911499022 L 14.5 -49.45299911499022 L 14.29800033569336 -49.45299911499022 L 14.29800033569336 -49.249999999999986 L 14.29800033569336 -49.048000335693345 L 14.5 -49.048000335693345 L 14.70300006866455 -49.048000335693345 L 14.70300006866455 -49.15200042724608 M 3.1029999256134033 -49.15200042724608 L 3.1029999256134033 -49.249999999999986 L 3.1029999256134033 -49.45299911499022 L 2.9000000953674316 -49.45299911499022 L 2.697999954223633 -49.45299911499022 L 2.697999954223633 -49.249999999999986 L 2.697999954223633 -49.048000335693345 L 2.9000000953674316 -49.048000335693345 L 3.1029999256134033 -49.048000335693345 L 3.1029999256134033 -49.15200042724608 z" fill="none" stroke="rgb(255,0,0)" stroke-width="0.001mm" />
</svg>