<?xml version="1.0" standalone="no"?>
<!DOCTYPE svg PUBLIC "-//W3C//DTD SVG 1.1//EN"
  "http://www.w3.org/Graphics/SVG/1.1/DTD/svg11.dtd">
<svg width="30.25mm" height="20.999999999999993mm" viewBox="8.875 -30.999999999999993 30.25 20.999999999999993" xmlns="http://www.w3.org/2000/svg" version="1.1">
	<title>svgOutput</title>
	<desc>made with tinkercad</desc>
<path d="M 10.82699966430664 -13.781999588012692 L 10.759486198425293 -13.999999999999996 L 10.61299991607666 -14.472999572753903 L 10.42300033569336 -15.222000122070309 L 10.258999824523926 -16.021999359130856 L 10.200169563293457 -16.38400077819824 L 10.121999740600586 -16.86499977111816 L 10.015000343322754 -17.74200057983398 L 9.937000274658203 -18.646999359130856 L 9.890999794006348 -19.56900024414062 L 9.875 -20.499999999999996 L 9.890999794006348 -21.43099975585937 L 9.937000274658203 -22.353000640869137 L 10.015000343322754 -23.257999420166012 L 10.121999740600586 -24.13500022888183 L 10.193669319152832 -24.57600021362304 L 10.258999824523926 -24.978000640869134 L 10.42300033569336 -25.77799987792968 L 10.61299991607666 -26.527000427246087 L 10.759486198425293 -26.999999999999993 L 10.82699966430664 -27.218000411987298 L 11.062999725341797 -27.84399986267089 L 11.319000244140625 -28.399000167846673 L 11.593000411987305 -28.878000259399407 L 11.880999565124512 -29.277000427246087 L 12.182000160217285 -29.590999603271477 L 12.491000175476074 -29.816999435424798 L 12.805999755859375 -29.954000473022454 L 13.125 -29.999999999999993 L 13.125 -26.999999999999993 L 14.822999954223633 -26.999999999999993 L 15.128000259399414 -26.999999999999993 L 15.623000144958496 -26.999999999999993 L 15.928000450134277 -26.999999999999993 L 16.253999710083008 -26.999999999999993 L 16.52400016784668 -26.999999999999993 L 16.52899932861328 -26.999999999999993 L 22.055999755859375 -26.999999999999993 L 22.06399917602539 -26.999999999999993 L 22.339000701904297 -26.999999999999993 L 25.222999572753906 -26.999999999999993 L 25.628000259399414 -26.999999999999993 L 26.12299919128418 -26.999999999999993 L 26.12299919128418 -26.0979995727539 L 26.12299919128418 -24.247999191284173 L 26.577999114990234 -24.247999191284173 L 26.85300064086914 -24.247999191284173 L 31.847999572753906 -24.247999191284173 L 32.12300109863281 -24.247999191284173 L 36.875 -24.247999191284173 L 36.87799835205078 -24.247999191284173 L 36.87799835205078 -24.57600021362304 L 36.87799835205078 -26.999999999999993 L 36.87799835205078 -27.003000259399407 L 36.875 -27.003000259399407 L 36.875 -29.999999999999993 L 36.99800109863281 -29.954000473022454 L 37.11899948120117 -29.816999435424798 L 37.237998962402344 -29.590999603271477 L 37.35300064086914 -29.277000427246087 L 37.4640007019043 -28.878000259399407 L 37.569000244140625 -28.399000167846673 L 37.667999267578125 -27.84399986267089 L 37.75899887084961 -27.218000411987298 L 37.784515380859375 -27.003000259399407 L 37.78487014770508 -26.999999999999993 L 37.840999603271484 -26.527000427246087 L 37.91400146484375 -25.77799987792968 L 37.97700119018555 -24.978000640869134 L 38.00227355957031 -24.57600021362304 L 38.02289581298828 -24.247999191284173 L 38.029998779296875 -24.13500022888183 L 38.07099914550781 -23.257999420166012 L 38.10100173950195 -22.353000640869137 L 38.11899948120117 -21.43099975585937 L 38.125 -20.499999999999996 L 38.11899948120117 -19.56900024414062 L 38.10100173950195 -18.646999359130856 L 38.07099914550781 -17.74200057983398 L 38.029998779296875 -16.86499977111816 L 38.02201461791992 -16.738000869750973 L 37.999759674072266 -16.38400077819824 L 37.97700119018555 -16.021999359130856 L 37.91400146484375 -15.222000122070309 L 37.840999603271484 -14.472999572753903 L 37.78487014770508 -13.999999999999996 L 37.78285217285156 -13.982999801635739 L 37.75899887084961 -13.781999588012692 L 37.667999267578125 -13.156000137329098 L 37.569000244140625 -12.600999832153317 L 37.4640007019043 -12.121999740600582 L 37.35300064086914 -11.722999572753904 L 37.237998962402344 -11.409000396728514 L 37.11899948120117 -11.182999610900877 L 36.99800109863281 -11.045999526977537 L 36.875 -10.999999999999998 L 36.875 -13.982999801635739 L 36.87799835205078 -13.982999801635739 L 36.87799835205078 -13.999999999999996 L 36.87799835205078 -16.38400077819824 L 36.87799835205078 -16.738000869750973 L 36.875 -16.738000869750973 L 31.930999755859375 -16.738000869750973 L 26.12299919128418 -16.738000869750973 L 26.12299919128418 -14.498000144958493 L 26.12299919128418 -13.999999999999996 L 25.222999572753906 -13.999999999999996 L 22.06399917602539 -13.999999999999996 L 22.055999755859375 -13.999999999999996 L 16.253999710083008 -13.999999999999996 L 15.623000144958496 -13.999999999999996 L 14.822999954223633 -13.999999999999996 L 13.125 -13.999999999999996 L 13.125 -10.999999999999998 L 12.805999755859375 -11.045999526977537 L 12.491000175476074 -11.182999610900877 L 12.182000160217285 -11.409000396728514 L 11.880999565124512 -11.722999572753904 L 11.593000411987305 -12.121999740600582 L 11.319000244140625 -12.600999832153317 L 11.062999725341797 -13.156000137329098 L 10.82699966430664 -13.781999588012692 M 22.159000396728516 -22.823999404907223 L 22.201000213623047 -22.818000793457028 L 22.243000030517578 -22.823999404907223 L 22.27199935913086 -22.838871002197262 L 22.281999588012695 -22.843999862670895 L 22.312000274658203 -22.874000549316403 L 22.332000732421875 -22.91300010681152 L 22.339000701904297 -22.95499992370605 L 22.332000732421875 -22.997999191284176 L 22.312000274658203 -23.0359992980957 L 22.308000564575195 -23.04000091552734 L 22.281999588012695 -23.065999984741207 L 22.243000030517578 -23.08600044250488 L 22.201000213623047 -23.0930004119873 L 22.159000396728516 -23.08600044250488 L 22.1200008392334 -23.065999984741207 L 22.0939998626709 -23.04000091552734 L 22.09000015258789 -23.0359992980957 L 22.06999969482422 -22.997999191284176 L 22.06399917602539 -22.95499992370605 L 22.06999969482422 -22.91300010681152 L 22.09000015258789 -22.874000549316403 L 22.1200008392334 -22.843999862670895 L 22.159000396728516 -22.823999404907223 M 26.847000122070312 -22.95499992370605 L 26.85300064086914 -22.996999740600582 L 26.847000122070312 -23.04000091552734 L 26.82699966430664 -23.07799911499023 L 26.797000885009766 -23.10799980163574 L 26.757999420166016 -23.12800025939941 L 26.715999603271484 -23.135000228881832 L 26.67300033569336 -23.12800025939941 L 26.635000228881836 -23.10799980163574 L 26.604999542236328 -23.07799911499023 L 26.584999084472656 -23.04000091552734 L 26.577999114990234 -22.996999740600582 L 26.584999084472656 -22.95499992370605 L 26.604999542236328 -22.916000366210934 L 26.635000228881836 -22.885999679565426 L 26.67300033569336 -22.865999221801754 L 26.715999603271484 -22.86000061035156 L 26.757999420166016 -22.865999221801754 L 26.797000885009766 -22.885999679565426 L 26.82699966430664 -22.916000366210934 L 26.847000122070312 -22.95499992370605 M 31.94300079345703 -22.959999084472653 L 31.986000061035156 -22.954000473022457 L 32.02799987792969 -22.959999084472653 L 32.06700134277344 -22.979999542236325 L 32.09700012207031 -23.010000228881832 L 32.11238479614258 -23.04000091552734 L 32.117000579833984 -23.04899978637695 L 32.12300109863281 -23.09099960327148 L 32.117000579833984 -23.13400077819824 L 32.09700012207031 -23.172000885009762 L 32.06700134277344 -23.201999664306637 L 32.02799987792969 -23.22200012207031 L 31.986000061035156 -23.22900009155273 L 31.94300079345703 -23.22200012207031 L 31.905000686645508 -23.201999664306637 L 31.875 -23.172000885009762 L 31.854999542236328 -23.13400077819824 L 31.847999572753906 -23.09099960327148 L 31.854999542236328 -23.04899978637695 L 31.859615325927734 -23.04000091552734 L 31.875 -23.010000228881832 L 31.905000686645508 -22.979999542236325 L 31.94300079345703 -22.959999084472653 M 25.36199951171875 -26.10700035095214 L 25.424999237060547 -26.0979995727539 L 25.488000869750977 -26.10700035095214 L 25.497655868530273 -26.111999511718743 L 25.54400062561035 -26.135999679565423 L 25.589000701904297 -26.180999755859368 L 25.600000381469727 -26.202241897583 L 25.618000030517578 -26.236999511718743 L 25.628000259399414 -26.29999923706054 L 25.618000030517578 -26.36300086975097 L 25.600000381469727 -26.39775848388671 L 25.589000701904297 -26.419000625610344 L 25.54400062561035 -26.46400070190429 L 25.488000869750977 -26.49300003051757 L 25.424999237060547 -26.503000259399407 L 25.36199951171875 -26.49300003051757 L 25.305999755859375 -26.46400070190429 L 25.26099967956543 -26.419000625610344 L 25.234588623046875 -26.36800003051757 L 25.23200035095215 -26.36300086975097 L 25.222999572753906 -26.29999923706054 L 25.23200035095215 -26.236999511718743 L 25.26099967956543 -26.180999755859368 L 25.305999755859375 -26.135999679565423 L 25.352344512939453 -26.111999511718743 L 25.36199951171875 -26.10700035095214 M 22.23794937133789 -17.92000007629394 L 22.27199935913086 -17.93746185302734 L 22.274999618530273 -17.938999176025387 L 22.30500030517578 -17.968999862670895 L 22.325000762939453 -18.007999420166012 L 22.33099937438965 -18.049999237060543 L 22.325000762939453 -18.0930004119873 L 22.30500030517578 -18.131000518798825 L 22.274999618530273 -18.1609992980957 L 22.27199935913086 -18.16253852844238 L 22.236000061035156 -18.18099975585937 L 22.194000244140625 -18.187999725341793 L 22.150999069213867 -18.18099975585937 L 22.113000869750977 -18.1609992980957 L 22.08300018310547 -18.131000518798825 L 22.06399917602539 -18.094900131225582 L 22.062999725341797 -18.0930004119873 L 22.055999755859375 -18.049999237060543 L 22.062999725341797 -18.007999420166012 L 22.06399917602539 -18.006050109863278 L 22.08300018310547 -17.968999862670895 L 22.113000869750977 -17.938999176025387 L 22.149099349975586 -17.92000007629394 L 22.150999069213867 -17.919000625610348 L 22.194000244140625 -17.91300010681152 L 22.236000061035156 -17.919000625610348 L 22.23794937133789 -17.92000007629394 M 26.82699966430664 -19.68099975585937 L 26.842897415161133 -19.711999893188473 L 26.847000122070312 -19.71999931335449 L 26.85300064086914 -19.76199913024902 L 26.847000122070312 -19.805000305175778 L 26.82699966430664 -19.8430004119873 L 26.797000885009766 -19.872999191284176 L 26.757999420166016 -19.892999649047848 L 26.715999603271484 -19.89999961853027 L 26.67300033569336 -19.892999649047848 L 26.635000228881836 -19.872999191284176 L 26.604999542236328 -19.8430004119873 L 26.584999084472656 -19.805000305175778 L 26.577999114990234 -19.76199913024902 L 26.584999084472656 -19.71999931335449 L 26.589101791381836 -19.711999893188473 L 26.604999542236328 -19.68099975585937 L 26.635000228881836 -19.650999069213864 L 26.67300033569336 -19.631000518798825 L 26.715999603271484 -19.624999999999996 L 26.757999420166016 -19.631000518798825 L 26.797000885009766 -19.650999069213864 L 26.82699966430664 -19.68099975585937 M 35.26300048828125 -21.63199996948242 L 35.32500076293945 -21.622999191284176 L 35.327999114990234 -21.62342834472656 L 35.38800048828125 -21.63199996948242 L 35.444000244140625 -21.6609992980957 L 35.48899841308594 -21.705999374389645 L 35.518001556396484 -21.76199913024902 L 35.52799987792969 -21.82500076293945 L 35.518001556396484 -21.888000488281246 L 35.48899841308594 -21.94400024414062 L 35.444000244140625 -21.989000320434567 L 35.39186096191406 -22.01600074768066 L 35.38800048828125 -22.017999649047848 L 35.32500076293945 -22.027999877929684 L 35.26300048828125 -22.017999649047848 L 35.25906753540039 -22.01600074768066 L 35.20600128173828 -21.989000320434567 L 35.1609992980957 -21.94400024414062 L 35.132999420166016 -21.888000488281246 L 35.12300109863281 -21.82500076293945 L 35.132999420166016 -21.76199913024902 L 35.1609992980957 -21.705999374389645 L 35.20600128173828 -21.6609992980957 L 35.26300048828125 -21.63199996948242 M 32.1338005065918 -17.91300010681152 L 32.147098541259766 -17.92000007629394 L 32.14899826049805 -17.920999526977536 L 32.17900085449219 -17.951000213623043 L 32.19900131225586 -17.989000320434567 L 32.20600128173828 -18.03199958801269 L 32.19900131225586 -18.073999404907223 L 32.17900085449219 -18.113000869750973 L 32.14899826049805 -18.142999649047848 L 32.111000061035156 -18.16300010681152 L 32.06800079345703 -18.169000625610348 L 32.0260009765625 -18.16300010681152 L 32 -18.149665832519528 L 31.98699951171875 -18.142999649047848 L 31.957000732421875 -18.113000869750973 L 31.937000274658203 -18.073999404907223 L 31.930999755859375 -18.03199958801269 L 31.937000274658203 -17.989000320434567 L 31.957000732421875 -17.951000213623043 L 31.98699951171875 -17.920999526977536 L 31.988950729370117 -17.92000007629394 L 32.002601623535156 -17.91300010681152 L 32.0260009765625 -17.900999069213864 L 32.06800079345703 -17.89399909973144 L 32.111000061035156 -17.900999069213864 L 32.1338005065918 -17.91300010681152 M 35.518001556396484 -19.111999511718746 L 35.52799987792969 -19.174999237060543 L 35.52403259277344 -19.20000076293945 L 35.518001556396484 -19.238000869750973 L 35.48899841308594 -19.294000625610348 L 35.444000244140625 -19.339000701904293 L 35.38800048828125 -19.368000030517575 L 35.32500076293945 -19.37800025939941 L 35.26300048828125 -19.368000030517575 L 35.20600128173828 -19.339000701904293 L 35.1609992980957 -19.294000625610348 L 35.132999420166016 -19.238000869750973 L 35.12696838378906 -19.20000076293945 L 35.12300109863281 -19.174999237060543 L 35.132999420166016 -19.111999511718746 L 35.1609992980957 -19.05599975585937 L 35.20600128173828 -19.010999679565426 L 35.26300048828125 -18.982000350952145 L 35.32500076293945 -18.972999572753903 L 35.38800048828125 -18.982000350952145 L 35.444000244140625 -19.010999679565426 L 35.48899841308594 -19.05599975585937 L 35.518001556396484 -19.111999511718746 M 24.315000534057617 -19.556999206542965 L 24.625 -19.507999420166012 L 24.934999465942383 -19.556999206542965 L 25.214000701904297 -19.698999404907223 L 25.43600082397461 -19.920999526977536 L 25.577999114990234 -20.20000076293945 L 25.62316131591797 -20.479999542236325 L 25.628000259399414 -20.510000228881832 L 25.577999114990234 -20.819999694824215 L 25.43600082397461 -21.09900093078613 L 25.214000701904297 -21.32099914550781 L 24.934999465942383 -21.462999343872067 L 24.625 -21.513000488281246 L 24.315000534057617 -21.462999343872067 L 24.035999298095703 -21.32099914550781 L 23.81399917602539 -21.09900093078613 L 23.672000885009766 -20.819999694824215 L 23.62299919128418 -20.510000228881832 L 23.627742767333984 -20.479999542236325 L 23.672000885009766 -20.20000076293945 L 23.81399917602539 -19.920999526977536 L 24.035999298095703 -19.698999404907223 L 24.315000534057617 -19.556999206542965 M 25.23200035095215 -14.76299953460693 L 25.222999572753906 -14.699999809265133 L 25.23200035095215 -14.637000083923336 L 25.26099967956543 -14.581000328063961 L 25.305999755859375 -14.536000251770016 L 25.36199951171875 -14.506999969482418 L 25.424999237060547 -14.498000144958493 L 25.488000869750977 -14.506999969482418 L 25.54400062561035 -14.536000251770016 L 25.589000701904297 -14.581000328063961 L 25.600000381469727 -14.602241516113278 L 25.618000030517578 -14.637000083923336 L 25.628000259399414 -14.699999809265133 L 25.618000030517578 -14.76299953460693 L 25.600000381469727 -14.797759056091305 L 25.589000701904297 -14.819000244140621 L 25.559999465942383 -14.847999572753903 L 25.54400062561035 -14.864000320434567 L 25.488000869750977 -14.892999649047848 L 25.424999237060547 -14.902999877929684 L 25.36199951171875 -14.892999649047848 L 25.305999755859375 -14.864000320434567 L 25.290000915527344 -14.847999572753903 L 25.26099967956543 -14.819000244140621 L 25.23200035095215 -14.76299953460693 M 16.384000778198242 -18.186832427978512 L 16.349000930786133 -18.18099975585937 L 16.309999465942383 -18.162000656127926 L 16.280000686645508 -18.131000518798825 L 16.260000228881836 -18.0930004119873 L 16.253999710083008 -18.049999237060543 L 16.260000228881836 -18.007999420166012 L 16.280000686645508 -17.968999862670895 L 16.309999465942383 -17.938999176025387 L 16.349000930786133 -17.92000007629394 L 16.391000747680664 -17.91300010681152 L 16.43400001525879 -17.92000007629394 L 16.472000122070312 -17.938999176025387 L 16.50200080871582 -17.968999862670895 L 16.52199935913086 -18.007999420166012 L 16.52899932861328 -18.049999237060543 L 16.52199935913086 -18.0930004119873 L 16.50200080871582 -18.131000518798825 L 16.472000122070312 -18.162000656127926 L 16.43400001525879 -18.18099975585937 L 16.391000747680664 -18.187999725341793 L 16.384000778198242 -18.186832427978512 M 16.347000122070312 -22.823999404907223 L 16.388999938964844 -22.818000793457028 L 16.430999755859375 -22.823999404907223 L 16.4689998626709 -22.843999862670895 L 16.499000549316406 -22.874999999999996 L 16.51799964904785 -22.913999557495114 L 16.52400016784668 -22.958000183105465 L 16.51799964904785 -23.00099945068359 L 16.499000549316406 -23.04000091552734 L 16.4689998626709 -23.07099914550781 L 16.430999755859375 -23.09099960327148 L 16.388999938964844 -23.097999572753903 L 16.347000122070312 -23.09099960327148 L 16.30900001525879 -23.07099914550781 L 16.27899932861328 -23.04000091552734 L 16.260000228881836 -23.00099945068359 L 16.253999710083008 -22.958000183105465 L 16.260000228881836 -22.913999557495114 L 16.27899932861328 -22.874999999999996 L 16.30900001525879 -22.843999862670895 L 16.347000122070312 -22.823999404907223 M 14.928000450134277 -24.624999999999993 L 14.975000381469727 -24.61800003051757 L 15.022000312805176 -24.624999999999993 L 15.0649995803833 -24.646999359130852 L 15.097999572753906 -24.680000305175774 L 15.119999885559082 -24.7229995727539 L 15.128000259399414 -24.770000457763665 L 15.119999885559082 -24.816999435424798 L 15.112325668334961 -24.832000732421868 L 15.097999572753906 -24.860000610351555 L 15.0649995803833 -24.892999649047844 L 15.022000312805176 -24.915000915527337 L 14.975000381469727 -24.923000335693352 L 14.928000450134277 -24.915000915527337 L 14.885000228881836 -24.892999649047844 L 14.85200023651123 -24.860000610351555 L 14.837674140930176 -24.832000732421868 L 14.829999923706055 -24.816999435424798 L 14.822999954223633 -24.770000457763665 L 14.829999923706055 -24.7229995727539 L 14.85200023651123 -24.680000305175774 L 14.885000228881836 -24.646999359130852 L 14.928000450134277 -24.624999999999993 M 15.727999687194824 -24.624999999999993 L 15.774999618530273 -24.61800003051757 L 15.821999549865723 -24.624999999999993 L 15.864999771118164 -24.646999359130852 L 15.89799976348877 -24.680000305175774 L 15.920000076293945 -24.7229995727539 L 15.928000450134277 -24.770000457763665 L 15.920000076293945 -24.816999435424798 L 15.912325859069824 -24.832000732421868 L 15.89799976348877 -24.860000610351555 L 15.864999771118164 -24.892999649047844 L 15.821999549865723 -24.915000915527337 L 15.774999618530273 -24.923000335693352 L 15.727999687194824 -24.915000915527337 L 15.6850004196167 -24.892999649047844 L 15.652000427246094 -24.860000610351555 L 15.637674331665039 -24.832000732421868 L 15.630000114440918 -24.816999435424798 L 15.623000144958496 -24.770000457763665 L 15.630000114440918 -24.7229995727539 L 15.652000427246094 -24.680000305175774 L 15.6850004196167 -24.646999359130852 L 15.727999687194824 -24.624999999999993 M 15.727999687194824 -16.104999542236325 L 15.774999618530273 -16.097999572753903 L 15.821999549865723 -16.104999542236325 L 15.864999771118164 -16.127000808715817 L 15.871999740600586 -16.13400077819824 L 15.89799976348877 -16.159999847412106 L 15.920000076293945 -16.20299911499023 L 15.928000450134277 -16.249999999999996 L 15.920000076293945 -16.297000885009762 L 15.89799976348877 -16.340000152587887 L 15.871999740600586 -16.365999221801754 L 15.864999771118164 -16.372999191284176 L 15.843500137329102 -16.38400077819824 L 15.821999549865723 -16.39500045776367 L 15.774999618530273 -16.402999877929684 L 15.727999687194824 -16.39500045776367 L 15.706500053405762 -16.38400077819824 L 15.6850004196167 -16.372999191284176 L 15.652000427246094 -16.340000152587887 L 15.630000114440918 -16.297000885009762 L 15.623000144958496 -16.249999999999996 L 15.630000114440918 -16.20299911499023 L 15.652000427246094 -16.159999847412106 L 15.6850004196167 -16.127000808715817 L 15.727999687194824 -16.104999542236325 M 14.847999572753906 -16.33218193054199 L 14.829999923706055 -16.297000885009762 L 14.822999954223633 -16.249999999999996 L 14.829999923706055 -16.20299911499023 L 14.847999572753906 -16.167818069458004 L 14.85200023651123 -16.159999847412106 L 14.883999824523926 -16.12800025939941 L 14.885000228881836 -16.127000808715817 L 14.928000450134277 -16.104999542236325 L 14.975000381469727 -16.097999572753903 L 15.022000312805176 -16.104999542236325 L 15.0649995803833 -16.127000808715817 L 15.065999984741211 -16.12800025939941 L 15.097999572753906 -16.159999847412106 L 15.119999885559082 -16.20299911499023 L 15.128000259399414 -16.249999999999996 L 15.119999885559082 -16.297000885009762 L 15.097999572753906 -16.340000152587887 L 15.0649995803833 -16.372999191284176 L 15.043499946594238 -16.38400077819824 L 15.022000312805176 -16.39500045776367 L 14.975000381469727 -16.402999877929684 L 14.928000450134277 -16.39500045776367 L 14.906499862670898 -16.38400077819824 L 14.885000228881836 -16.372999191284176 L 14.85200023651123 -16.340000152587887 L 14.847999572753906 -16.33218193054199 z" fill="none" stroke="rgb(255,0,0)" stroke-width="0.001mm" />
</svg>