<?xml version="1.0" standalone="no"?>
<!DOCTYPE svg PUBLIC "-//W3C//DTD SVG 1.1//EN"
  "http://www.w3.org/Graphics/SVG/1.1/DTD/svg11.dtd">
<svg width="25.518000602722168mm" height="49.00000166893005mm" viewBox="-16.015000343322754 -45.00400161743163 25.518000602722168 49.00000166893005" xmlns="http://www.w3.org/2000/svg" version="1.1">
	<title>svgOutput</title>
	<desc>made with tinkercad</desc>
<path d="M -15.015000343322754 2.9960000514984126 L -15.015000343322754 -44.00400161743163 L -14.517999649047852 -44.00400161743163 L -11.315999984741211 -44.00400161743163 L -9.003999710083008 -44.00400161743163 L 2.2869999408721924 -44.00400161743163 L 3.503000020980835 -44.00400161743163 L 5.488999843597412 -44.00400161743163 L 5.985000133514404 -44.00400161743163 L 5.985000133514404 -39.81700134277343 L 5.985000133514404 -37.99999999999999 L 8.503000259399414 -37.99999999999999 L 8.503000259399414 -32.99999999999999 L 5.985000133514404 -32.99999999999999 L 5.985000133514404 -28.006999969482415 L 3.503000020980835 -28.006999969482415 L 2.2869999408721924 -28.006999969482415 L -9.003999710083008 -28.006999969482415 L -9.003999710083008 -13.0019998550415 L 2.2869999408721924 -13.0019998550415 L 3.503000020980835 -13.0019998550415 L 5.985000133514404 -13.0019998550415 L 5.985000133514404 -7.999999999999998 L 8.503000259399414 -7.999999999999998 L 8.503000259399414 -2.999999999999999 L 5.985000133514404 -2.999999999999999 L 5.985000133514404 1.9910000562667842 L 5.985000133514404 2.9960000514984126 L 3.503000020980835 2.9960000514984126 L 2.2869999408721924 2.9960000514984126 L -9.003999710083008 2.9960000514984126 L -14.5 2.9960000514984126 L -14.517999649047852 2.9960000514984126 L -15.015000343322754 2.9960000514984126 M 3.503000020980835 -39.87844467163085 L 3.888000011444092 -39.81700134277343 L 4.382999897003174 -39.89599990844726 L 4.828999996185303 -40.1240005493164 L 5.183000087738037 -40.47800064086913 L 5.410999774932861 -40.92499923706054 L 5.416515350341797 -40.95999908447265 L 5.488999843597412 -41.419998168945305 L 5.410999774932861 -41.91500091552734 L 5.183000087738037 -42.36199951171874 L 4.828999996185303 -42.71599960327148 L 4.382999897003174 -42.94400024414062 L 3.888000011444092 -43.022998809814446 L 3.503000020980835 -42.961555480957024 L 3.3929998874664307 -42.94400024414062 L 2.947000026702881 -42.71599960327148 L 2.5929999351501465 -42.36199951171874 L 2.365000009536743 -41.91500091552734 L 2.2869999408721924 -41.419998168945305 L 2.359484910964966 -40.95999908447265 L 2.365000009536743 -40.92499923706054 L 2.5929999351501465 -40.47800064086913 L 2.947000026702881 -40.1240005493164 L 3.3929998874664307 -39.89599990844726 L 3.503000020980835 -39.87844467163085 M 2.348296880722046 1.1102230246251565e-16 L 2.2869999408721924 0.3889999985694885 L 2.365000009536743 0.88400000333786 L 2.5929999351501465 1.3309999704360962 L 2.947000026702881 1.6849999427795406 L 3.3929998874664307 1.9129999876022334 L 3.503000020980835 1.9303333759307857 L 3.888000011444092 1.9910000562667842 L 4.382999897003174 1.9129999876022334 L 4.828999996185303 1.6849999427795406 L 5.183000087738037 1.3309999704360962 L 5.410999774932861 0.88400000333786 L 5.488999843597412 0.3889999985694885 L 5.427702903747559 1.1102230246251565e-16 L 5.410999774932861 -0.10599999874830232 L 5.183000087738037 -0.5529999732971189 L 4.828999996185303 -0.9070000052452084 L 4.382999897003174 -1.1349999904632564 L 3.888000011444092 -1.2139999866485591 L 3.503000020980835 -1.1525555849075313 L 3.3929998874664307 -1.1349999904632564 L 2.947000026702881 -0.9070000052452084 L 2.5929999351501465 -0.5529999732971189 L 2.365000009536743 -0.10599999874830232 L 2.348296880722046 1.1102230246251565e-16 M -11.386700630187988 -40.95999908447265 L -11.315999984741211 -41.40299987792968 L -11.395000457763672 -41.89899826049804 L -11.621999740600586 -42.34500122070312 L -11.97599983215332 -42.700000762939446 L -12.42300033569336 -42.92699813842773 L -12.916999816894531 -43.00600051879882 L -13.411999702453613 -42.92699813842773 L -13.857999801635742 -42.700000762939446 L -14.213000297546387 -42.34500122070312 L -14.4399995803833 -41.89899826049804 L -14.517999649047852 -41.40299987792968 L -14.448193550109863 -40.95999908447265 L -14.4399995803833 -40.908000946044915 L -14.213000297546387 -40.46099853515624 L -13.857999801635742 -40.10699844360351 L -13.411999702453613 -39.87900161743163 L -12.916999816894531 -39.80099868774413 L -12.42300033569336 -39.87900161743163 L -11.97599983215332 -40.10699844360351 L -11.621999740600586 -40.46099853515624 L -11.395000457763672 -40.908000946044915 L -11.386700630187988 -40.95999908447265 M -14.436161994934082 1.1102230246251565e-16 L -14.5 0.4000000059604645 L -14.420999526977539 0.8949999809265136 L -14.194000244140625 1.3420000076293945 L -13.84000015258789 1.695999979972839 L -13.392999649047852 1.9240000247955318 L -12.89900016784668 2.0030000209808345 L -12.404000282287598 1.9240000247955318 L -11.956999778747559 1.695999979972839 L -11.602999687194824 1.3420000076293945 L -11.37600040435791 0.8949999809265136 L -11.29800033569336 0.4000000059604645 L -11.361030578613281 1.1102230246251565e-16 L -11.37600040435791 -0.09499999880790697 L -11.602999687194824 -0.5419999957084654 L -11.956999778747559 -0.8960000276565548 L -12.404000282287598 -1.123999953269958 L -12.89900016784668 -1.2020000219345088 L -13.392999649047852 -1.123999953269958 L -13.84000015258789 -0.8960000276565548 L -14.194000244140625 -0.5419999957084654 L -14.420999526977539 -0.09499999880790697 L -14.436161994934082 1.1102230246251565e-16 z" fill="none" stroke="rgb(255,0,0)" stroke-width="0.001mm" />
</svg>