<?xml version="1.0" standalone="no"?>
<!DOCTYPE svg PUBLIC "-//W3C//DTD SVG 1.1//EN"
  "http://www.w3.org/Graphics/SVG/1.1/DTD/svg11.dtd">
<svg width="50.00400161743164mm" height="63.999999999999986mm" viewBox="-1 -72.99999999999999 50.00400161743164 63.999999999999986" xmlns="http://www.w3.org/2000/svg" version="1.1">
	<title>svgOutput</title>
	<desc>made with tinkercad</desc>
<path d="M 12.003999710083008 -71.99999999999999 L 12.003999710083008 -68.73400115966795 L 16.996999740600586 -68.73400115966795 L 16.996999740600586 -59.888000488281236 L 16.996999740600586 -47.49999999999999 L 32.00199890136719 -47.49999999999999 L 32.00199890136719 -59.888000488281236 L 32.00199890136719 -68.73400115966795 L 37.00400161743164 -68.73400115966795 L 37.00400161743164 -71.99999999999999 L 42.00400161743164 -71.99999999999999 L 42.00400161743164 -68.73400115966795 L 44.88999938964844 -68.73400115966795 L 46.994998931884766 -68.73400115966795 L 48 -68.73400115966795 L 48 -59.888000488281236 L 48 -42.00500106811523 L 48 -41.98600006103515 L 48 -41.48899841308593 L 1.0820000171661377 -41.48899841308593 L 0.9980000257492065 -41.48899841308593 L 0 -41.48899841308593 L 0 -68.73400115966795 L 0.9980000257492065 -68.73400115966795 L 1.0820000171661377 -68.73400115966795 L 3.187000036239624 -68.73400115966795 L 7.004000186920166 -68.73400115966795 L 7.004000186920166 -71.99999999999999 L 12.003999710083008 -71.99999999999999 M 48.00400161743164 -40.511001586914055 L 48.00400161743164 -37.90900039672851 L 48.00400161743164 -37.88999938964843 L 48.00400161743164 -34.49999999999999 L 48.00400161743164 -20.00699996948242 L 48.00400161743164 -16.486999511718746 L 48.00400161743164 -13.265999794006344 L 41 -13.265999794006344 L 41 -9.999999999999998 L 36 -9.999999999999998 L 36 -13.265999794006344 L 31.006999969482422 -13.265999794006344 L 31.006999969482422 -16.486999511718746 L 31.006999969482422 -34.49999999999999 L 16.00200080871582 -34.49999999999999 L 16.00200080871582 -20.00699996948242 L 16.00200080871582 -16.486999511718746 L 16.00200080871582 -13.265999794006344 L 11 -13.265999794006344 L 11 -9.999999999999998 L 6 -9.999999999999998 L 6 -13.265999794006344 L 0.004000000189989805 -13.265999794006344 L 0.004000000189989805 -16.486999511718746 L 0.004000000189989805 -34.49999999999999 L 0.004000000189989805 -40.511001586914055 L 1.097000002861023 -40.511001586914055 L 3.2019999027252197 -40.511001586914055 L 44.9010009765625 -40.511001586914055 L 47.00600051879883 -40.511001586914055 L 48.00400161743164 -40.511001586914055 M 44.86899948120117 -21.38400077819824 L 44.81700134277344 -21.059000015258786 L 44.86899948120117 -20.733999252319332 L 45.01900100708008 -20.440000534057614 L 45.055999755859375 -20.402999877929684 L 45.250999450683594 -20.208000183105465 L 45.54499816894531 -20.05800056457519 L 45.869998931884766 -20.00699996948242 L 46.19499969482422 -20.05800056457519 L 46.48899841308594 -20.208000183105465 L 46.72100067138672 -20.440000534057614 L 46.74140930175781 -20.479999542236325 L 46.87099838256836 -20.733999252319332 L 46.92300033569336 -21.059000015258786 L 46.87099838256836 -21.38400077819824 L 46.72100067138672 -21.677999496459957 L 46.48899841308594 -21.9109992980957 L 46.19499969482422 -22.05999946594238 L 45.869998931884766 -22.111999511718746 L 45.54499816894531 -22.05999946594238 L 45.250999450683594 -21.9109992980957 L 45.055999755859375 -21.715160369873043 L 45.01900100708008 -21.677999496459957 L 44.86899948120117 -21.38400077819824 M 2.9130001068115234 -20.440000534057614 L 2.933272123336792 -20.479999542236325 L 3.062000036239624 -20.733999252319332 L 3.114000082015991 -21.059000015258786 L 3.062000036239624 -21.38400077819824 L 2.9130001068115234 -21.677999496459957 L 2.680000066757202 -21.9109992980957 L 2.385999917984009 -22.05999946594238 L 2.061000108718872 -22.111999511718746 L 1.7359999418258667 -22.05999946594238 L 1.4420000314712524 -21.9109992980957 L 1.2100000381469727 -21.677999496459957 L 1.059999942779541 -21.38400077819824 L 1.0089999437332153 -21.059000015258786 L 1.059999942779541 -20.733999252319332 L 1.189591884613037 -20.479999542236325 L 1.2100000381469727 -20.440000534057614 L 1.4420000314712524 -20.208000183105465 L 1.7359999418258667 -20.05800056457519 L 2.061000108718872 -20.00699996948242 L 2.385999917984009 -20.05800056457519 L 2.680000066757202 -20.208000183105465 L 2.9130001068115234 -20.440000534057614 M 3.197150230407715 -38.91199874877929 L 3.2019999027252197 -38.943000793457024 L 3.1510000228881836 -39.26800155639648 L 3.000999927520752 -39.5610008239746 L 2.7690000534057617 -39.79399871826171 L 2.4749999046325684 -39.94400024414062 L 2.1500000953674316 -39.99499893188476 L 1.8250000476837158 -39.94400024414062 L 1.531000018119812 -39.79399871826171 L 1.2990000247955322 -39.5610008239746 L 1.1490000486373901 -39.26800155639648 L 1.097000002861023 -38.943000793457024 L 1.1019448041915894 -38.91199874877929 L 1.1490000486373901 -38.61700057983398 L 1.2990000247955322 -38.32400131225585 L 1.531000018119812 -38.09099960327148 L 1.8250000476837158 -37.94200134277343 L 2.1500000953674316 -37.88999938964843 L 2.4749999046325684 -37.94200134277343 L 2.7690000534057617 -38.09099960327148 L 3.000999927520752 -38.32400131225585 L 3.1510000228881836 -38.61700057983398 L 3.197150230407715 -38.91199874877929 M 46.99816131591797 -38.91199874877929 L 47.00600051879883 -38.96099853515624 L 46.95399856567383 -39.28699874877929 L 46.80500030517578 -39.58000183105468 L 46.571998596191406 -39.81299972534179 L 46.27899932861328 -39.9620018005371 L 45.952999114990234 -40.01399993896484 L 45.62799835205078 -39.9620018005371 L 45.334999084472656 -39.81299972534179 L 45.10200119018555 -39.58000183105468 L 44.95199966430664 -39.28699874877929 L 44.9010009765625 -38.96099853515624 L 44.908687591552734 -38.91199874877929 L 44.95199966430664 -38.636001586914055 L 45.10200119018555 -38.342998504638665 L 45.334999084472656 -38.110000610351555 L 45.62799835205078 -37.95999908447265 L 45.952999114990234 -37.90900039672851 L 46.27899932861328 -37.95999908447265 L 46.571998596191406 -38.110000610351555 L 46.80500030517578 -38.342998504638665 L 46.95399856567383 -38.636001586914055 L 46.99816131591797 -38.91199874877929 M 1.809000015258789 -59.93999862670897 L 2.134000062942505 -59.888000488281236 L 2.4590001106262207 -59.93999862670897 L 2.753000020980835 -60.08900070190428 L 2.984999895095825 -60.32199859619139 L 3.134999990463257 -60.616001129150376 L 3.187000036239624 -60.94100189208983 L 3.134999990463257 -61.26599884033202 L 3.046224594116211 -61.43999862670897 L 2.984999895095825 -61.560001373291 L 2.753000020980835 -61.79199981689452 L 2.4590001106262207 -61.94200134277342 L 2.134000062942505 -61.993000030517564 L 1.809000015258789 -61.94200134277342 L 1.5149999856948853 -61.79199981689452 L 1.2829999923706055 -61.560001373291 L 1.2217755317687988 -61.43999862670897 L 1.1330000162124634 -61.26599884033202 L 1.0820000171661377 -60.94100189208983 L 1.1330000162124634 -60.616001129150376 L 1.2829999923706055 -60.32199859619139 L 1.5149999856948853 -60.08900070190428 L 1.809000015258789 -59.93999862670897 M 45.61800003051758 -59.93999862670897 L 45.94300079345703 -59.888000488281236 L 46.268001556396484 -59.93999862670897 L 46.5620002746582 -60.08900070190428 L 46.79399871826172 -60.32199859619139 L 46.944000244140625 -60.616001129150376 L 46.994998931884766 -60.94100189208983 L 46.944000244140625 -61.26599884033202 L 46.855224609375 -61.43999862670897 L 46.79399871826172 -61.560001373291 L 46.5620002746582 -61.79199981689452 L 46.268001556396484 -61.94200134277342 L 45.94300079345703 -61.993000030517564 L 45.61800003051758 -61.94200134277342 L 45.32400131225586 -61.79199981689452 L 45.090999603271484 -61.560001373291 L 45.030181884765625 -61.43999862670897 L 44.94200134277344 -61.26599884033202 L 44.88999938964844 -60.94100189208983 L 44.94200134277344 -60.616001129150376 L 45.090999603271484 -60.32199859619139 L 45.32400131225586 -60.08900070190428 L 45.61800003051758 -59.93999862670897 M 1.725000023841858 -42.03799819946288 L 2.0510001182556152 -41.98600006103515 L 2.375999927520752 -42.03799819946288 L 2.6689999103546143 -42.187000274658196 L 2.9019999504089355 -42.419998168945305 L 3.052000045776367 -42.713001251220696 L 3.0981502532958984 -43.00799942016601 L 3.1029999256134033 -43.03900146484374 L 3.052000045776367 -43.36399841308593 L 2.9019999504089355 -43.65700149536132 L 2.6689999103546143 -43.88999938964843 L 2.375999927520752 -44.04000091552734 L 2.0510001182556152 -44.09099960327148 L 1.725000023841858 -44.04000091552734 L 1.4320000410079956 -43.88999938964843 L 1.1990000009536743 -43.65700149536132 L 1.0820000171661377 -43.42692565917968 L 1.0499999523162842 -43.36399841308593 L 0.9980000257492065 -43.03900146484374 L 1.002944827079773 -43.00799942016601 L 1.0499999523162842 -42.713001251220696 L 1.0820000171661377 -42.650074005126946 L 1.1990000009536743 -42.419998168945305 L 1.4320000410079956 -42.187000274658196 L 1.725000023841858 -42.03799819946288 M 45.52899932861328 -42.05599975585937 L 45.854000091552734 -42.00500106811523 L 46.17900085449219 -42.05599975585937 L 46.472999572753906 -42.206001281738274 L 46.70500183105469 -42.43899917602538 L 46.85499954223633 -42.73199844360351 L 46.8991584777832 -43.00799942016601 L 46.90700149536133 -43.05699920654296 L 46.85499954223633 -43.38299942016601 L 46.70500183105469 -43.67599868774413 L 46.472999572753906 -43.90900039672851 L 46.17900085449219 -44.057998657226555 L 45.854000091552734 -44.110000610351555 L 45.52899932861328 -44.057998657226555 L 45.23500061035156 -43.90900039672851 L 45.00299835205078 -43.67599868774413 L 44.85300064086914 -43.38299942016601 L 44.801998138427734 -43.05699920654296 L 44.809688568115234 -43.00799942016601 L 44.85300064086914 -42.73199844360351 L 45.00299835205078 -42.43899917602538 L 45.23500061035156 -42.206001281738274 L 45.52899932861328 -42.05599975585937 z" fill="none" stroke="rgb(255,0,0)" stroke-width="0.001mm" />
</svg>